<?xml version="1.0" standalone="no"?>
<!DOCTYPE svg PUBLIC "-//W3C//DTD SVG 20010904//EN"
 "http://www.w3.org/TR/2001/REC-SVG-20010904/DTD/svg10.dtd">
<svg version="1.0" xmlns="http://www.w3.org/2000/svg"
 width="300.000000pt" height="300.000000pt" viewBox="0 0 300.000000 300.000000"
 preserveAspectRatio="xMidYMid meet">
<metadata>
Created by potrace 1.11, written by Peter Selinger 2001-2013
</metadata>
<g transform="translate(0.000000,300.000000) scale(0.100000,-0.100000)"
fill="#000000" stroke="none">
<path d="M0 2346 l0 -654 35 -6 c54 -10 65 -36 65 -146 0 -61 4 -100 12 -108
9 -9 3 -12 -30 -12 -31 0 -42 4 -42 15 0 13 -4 14 -20 5 -20 -11 -20 -21 -20
-725 l0 -715 1500 0 1500 0 0 710 0 710 -45 0 c-117 0 -113 137 4 156 37 6 41
9 41 35 0 35 -22 39 -47 9 -21 -24 -73 -27 -73 -4 0 28 56 74 89 74 l31 0 0
655 0 655 -1500 0 -1500 0 0 -654z m500 -632 l0 -65 26 20 c36 28 86 27 121
-3 27 -23 28 -28 31 -135 l4 -111 -36 0 -36 0 0 94 c0 73 -4 98 -16 110 -20
21 -37 20 -65 -3 -21 -17 -24 -29 -27 -110 l-4 -91 -29 0 -29 0 0 180 0 180
30 0 30 0 0 -66z m470 -6 l1 -73 69 73 c63 66 71 72 109 72 23 0 41 -4 41 -8
0 -4 -29 -37 -65 -72 -36 -35 -65 -68 -65 -72 0 -4 32 -50 70 -102 39 -52 70
-97 70 -100 0 -3 -19 -6 -42 -6 -42 0 -44 2 -98 80 -51 74 -56 78 -72 63 -14
-12 -18 -32 -18 -80 l0 -63 -35 0 -35 0 0 180 0 180 35 0 35 0 0 -72z m810
-108 l0 -180 -35 0 -35 0 0 180 0 180 35 0 35 0 0 -180z m130 0 l0 -180 -30 0
-30 0 0 180 0 180 30 0 30 0 0 -180z m930 152 c0 -21 -25 -61 -94 -148 l-95
-119 95 -3 94 -3 0 -29 0 -30 -140 0 -140 0 0 30 c0 24 22 58 94 148 l94 117
-89 3 -89 3 0 29 0 30 135 0 135 0 0 -28z m-2500 -77 c31 -16 50 -43 50 -69 0
-26 -49 -19 -76 9 -28 30 -47 32 -74 5 -25 -25 -27 -95 -4 -128 19 -28 60 -29
76 -2 9 13 24 20 45 20 18 0 33 -3 33 -6 0 -14 -24 -51 -44 -66 -28 -23 -113
-24 -145 -2 -28 20 -51 72 -51 113 0 47 30 110 59 126 34 19 95 19 131 0z
m1050 -20 c0 -30 -3 -35 -24 -35 -45 0 -56 -23 -56 -116 l0 -84 -35 0 -35 0 0
130 0 130 35 0 c29 0 35 -4 35 -21 0 -21 1 -20 21 5 11 14 29 26 40 26 15 0
19 -7 19 -35z m224 14 c25 -20 26 -25 26 -115 0 -53 5 -104 10 -115 10 -17 7
-19 -30 -19 -30 0 -40 4 -40 16 0 14 -2 14 -22 0 -29 -21 -102 -21 -122 0 -23
22 -30 62 -17 90 12 28 65 54 109 54 38 0 60 24 42 45 -18 21 -57 19 -77 -5
-10 -11 -30 -20 -46 -20 -25 0 -28 3 -22 23 4 12 18 32 31 45 34 30 120 31
158 1z"/>
<path d="M1525 1536 c-32 -9 -41 -17 -43 -37 -4 -30 16 -42 54 -33 27 7 44 31
44 63 0 24 0 24 -55 7z"/>
<path d="M0 1610 c0 -32 9 -37 28 -18 7 7 8 17 1 30 -15 27 -29 22 -29 -12z"/>
<path d="M12 1541 c-8 -5 -12 -21 -10 -39 4 -40 25 -30 34 16 7 32 0 39 -24
23z"/>
<path d="M2956 1527 c-27 -20 -18 -62 14 -62 22 0 25 5 28 38 3 40 -10 48 -42
24z"/>
</g>
</svg>
